<svg width="585" height="535" viewBox="0 0 585 535" fill="none" xmlns="http://www.w3.org/2000/svg">
<path d="M390.782 48.7029L295.402 0.911282C292.972 -0.303761 290.339 -0.303761 287.909 0.911282L192.528 48.7029C189.693 50.1205 187.87 52.9556 187.87 56.1957C187.87 59.4358 189.693 62.2709 192.528 63.6885L287.909 111.278C289.124 111.885 290.339 112.088 291.756 112.088C292.972 112.088 294.389 111.885 295.604 111.278L390.985 63.6885C393.82 62.2709 395.643 59.4358 395.643 56.1957C395.44 52.9556 393.618 50.1205 390.782 48.7029ZM291.554 94.4695L215.006 56.1957L291.554 17.9219L368.102 56.1957L291.554 94.4695Z" fill="url(#paint0_linear)"/>
<path d="M394.43 147.729C392.405 143.679 387.342 141.856 383.089 143.881L291.556 189.851L200.023 144.084C195.973 142.059 190.91 143.679 188.683 147.932C186.657 151.982 188.278 157.044 192.53 159.272L287.911 206.659C289.126 207.266 290.341 207.469 291.759 207.469C292.974 207.469 294.391 207.266 295.606 206.659L390.987 159.069C394.835 156.842 396.455 151.982 394.43 147.729Z" fill="url(#paint1_linear)"/>
<path d="M394.43 100.14C392.405 96.0899 387.342 94.2673 383.089 96.2924L291.556 142.059L200.023 96.2924C195.973 94.2673 190.91 95.8874 188.683 100.14C186.657 104.19 188.278 109.253 192.53 111.48L287.911 159.07C289.126 159.677 290.341 159.88 291.759 159.88C292.974 159.88 294.391 159.677 295.606 159.07L390.987 111.48C394.835 109.253 396.455 104.19 394.43 100.14Z" fill="url(#paint2_linear)"/>
<path d="M161.29 472.35C146.19 479.713 126.473 483.395 102.141 483.395C70.402 483.395 45.4439 473.997 27.2663 455.201C9.08878 436.405 0 411.359 0 380.064C0 346.735 10.1948 319.703 30.5845 298.97C51.0703 278.236 77.6153 267.869 110.219 267.869C130.417 267.869 147.44 270.436 161.29 275.571V320.769C147.44 312.437 131.667 308.271 113.97 308.271C94.5425 308.271 78.8656 314.423 66.9396 326.728C55.0136 339.033 49.0506 355.697 49.0506 376.722C49.0506 396.874 54.6769 412.958 65.9297 424.972C77.1825 436.889 92.3305 442.848 111.374 442.848C129.551 442.848 146.19 438.391 161.29 429.477V472.35Z" fill="url(#paint3_linear)"/>
<path d="M197.356 479.762V271.357H270.644C344.123 271.357 380.863 305.219 380.863 372.943C380.863 405.401 370.813 431.318 350.711 450.695C330.707 470.073 304.017 479.762 270.644 479.762H197.356ZM243.954 309.579V441.685H267.037C287.234 441.685 303.055 435.581 314.501 423.373C326.042 411.165 331.813 394.549 331.813 373.525C331.813 353.663 326.09 338.064 314.645 326.728C303.296 315.295 287.33 309.579 266.748 309.579H243.954Z" fill="url(#paint4_linear)"/>
<path d="M585 465.81C564.803 477.533 539.7 483.395 509.693 483.395C476.416 483.395 450.159 474.142 430.924 455.637C411.784 437.034 402.215 411.456 402.215 378.902C402.215 346.154 412.698 319.461 433.665 298.824C454.631 278.187 482.523 267.869 517.339 267.869C539.268 267.869 558.599 270.921 575.334 277.025V321.06C559.369 311.759 539.845 307.108 516.762 307.108C497.43 307.108 481.657 313.454 469.443 326.147C457.324 338.742 451.265 355.6 451.265 376.722C451.265 398.134 456.699 414.702 467.567 426.425C478.531 438.148 493.295 444.01 511.857 444.01C523.014 444.01 531.862 442.412 538.402 439.214V398.521H496.998V361.026H585V465.81Z" fill="url(#paint5_linear)"/>
<path d="M100.622 525.614C98.9659 526.489 96.9034 526.927 94.4346 526.927C91.2471 526.927 88.6951 525.9 86.7784 523.848C84.8617 521.796 83.9034 519.104 83.9034 515.77C83.9034 512.187 84.9815 509.291 87.1378 507.083C89.294 504.874 92.0284 503.77 95.3409 503.77C97.4659 503.77 99.2263 504.078 100.622 504.692V507.489C99.018 506.593 97.2471 506.145 95.3096 506.145C92.7367 506.145 90.6482 507.005 89.044 508.723C87.4503 510.442 86.6534 512.739 86.6534 515.614C86.6534 518.343 87.3982 520.52 88.8878 522.145C90.3878 523.76 92.3513 524.567 94.7784 524.567C97.0284 524.567 98.9763 524.067 100.622 523.067V525.614ZM110.603 526.552H108.041V502.864H110.603V526.552ZM130.444 526.552H127.882V524.052H127.819C126.704 525.968 125.064 526.927 122.897 526.927C121.303 526.927 120.053 526.505 119.147 525.661C118.251 524.817 117.803 523.697 117.803 522.302C117.803 519.312 119.564 517.572 123.085 517.083L127.882 516.411C127.882 513.692 126.783 512.333 124.585 512.333C122.658 512.333 120.918 512.989 119.366 514.302V511.677C120.939 510.677 122.751 510.177 124.803 510.177C128.564 510.177 130.444 512.166 130.444 516.145V526.552ZM127.882 518.458L124.022 518.989C122.835 519.156 121.939 519.453 121.335 519.88C120.73 520.296 120.428 521.041 120.428 522.114C120.428 522.895 120.704 523.536 121.257 524.036C121.819 524.525 122.564 524.77 123.491 524.77C124.762 524.77 125.809 524.328 126.632 523.442C127.465 522.546 127.882 521.416 127.882 520.052V518.458ZM137.503 525.973V523.223C138.899 524.255 140.436 524.77 142.113 524.77C144.363 524.77 145.488 524.02 145.488 522.52C145.488 522.093 145.389 521.734 145.191 521.442C145.003 521.14 144.743 520.874 144.41 520.645C144.087 520.416 143.701 520.213 143.253 520.036C142.816 519.848 142.342 519.656 141.832 519.458C141.123 519.177 140.498 518.895 139.957 518.614C139.425 518.322 138.977 517.999 138.613 517.645C138.259 517.281 137.988 516.869 137.8 516.411C137.623 515.953 137.535 515.416 137.535 514.802C137.535 514.052 137.707 513.39 138.05 512.817C138.394 512.234 138.852 511.749 139.425 511.364C139.998 510.968 140.649 510.671 141.378 510.473C142.118 510.275 142.878 510.177 143.66 510.177C145.045 510.177 146.285 510.416 147.378 510.895V513.489C146.201 512.718 144.847 512.333 143.316 512.333C142.837 512.333 142.404 512.39 142.019 512.505C141.634 512.609 141.3 512.76 141.019 512.958C140.748 513.156 140.535 513.395 140.378 513.677C140.233 513.947 140.16 514.249 140.16 514.583C140.16 514.999 140.233 515.348 140.378 515.63C140.535 515.911 140.759 516.161 141.05 516.38C141.342 516.598 141.696 516.796 142.113 516.973C142.529 517.15 143.003 517.343 143.535 517.552C144.243 517.822 144.878 518.104 145.441 518.395C146.003 518.677 146.483 518.999 146.878 519.364C147.274 519.718 147.576 520.13 147.785 520.598C148.003 521.067 148.113 521.624 148.113 522.27C148.113 523.062 147.936 523.749 147.582 524.333C147.238 524.916 146.774 525.4 146.191 525.786C145.608 526.171 144.936 526.458 144.175 526.645C143.415 526.833 142.618 526.927 141.785 526.927C140.139 526.927 138.712 526.609 137.503 525.973ZM154.297 525.973V523.223C155.693 524.255 157.229 524.77 158.907 524.77C161.157 524.77 162.282 524.02 162.282 522.52C162.282 522.093 162.183 521.734 161.985 521.442C161.797 521.14 161.537 520.874 161.203 520.645C160.88 520.416 160.495 520.213 160.047 520.036C159.61 519.848 159.136 519.656 158.625 519.458C157.917 519.177 157.292 518.895 156.75 518.614C156.219 518.322 155.771 517.999 155.407 517.645C155.052 517.281 154.782 516.869 154.594 516.411C154.417 515.953 154.328 515.416 154.328 514.802C154.328 514.052 154.5 513.39 154.844 512.817C155.188 512.234 155.646 511.749 156.219 511.364C156.792 510.968 157.443 510.671 158.172 510.473C158.912 510.275 159.672 510.177 160.453 510.177C161.839 510.177 163.078 510.416 164.172 510.895V513.489C162.995 512.718 161.641 512.333 160.11 512.333C159.63 512.333 159.198 512.39 158.813 512.505C158.427 512.609 158.094 512.76 157.813 512.958C157.542 513.156 157.328 513.395 157.172 513.677C157.026 513.947 156.953 514.249 156.953 514.583C156.953 514.999 157.026 515.348 157.172 515.63C157.328 515.911 157.552 516.161 157.844 516.38C158.136 516.598 158.49 516.796 158.907 516.973C159.323 517.15 159.797 517.343 160.328 517.552C161.037 517.822 161.672 518.104 162.235 518.395C162.797 518.677 163.276 518.999 163.672 519.364C164.068 519.718 164.37 520.13 164.578 520.598C164.797 521.067 164.907 521.624 164.907 522.27C164.907 523.062 164.729 523.749 164.375 524.333C164.032 524.916 163.568 525.4 162.985 525.786C162.401 526.171 161.729 526.458 160.969 526.645C160.209 526.833 159.412 526.927 158.578 526.927C156.933 526.927 155.505 526.609 154.297 525.973ZM184.385 526.552V504.145H190.572C198.468 504.145 202.416 507.786 202.416 515.067C202.416 518.525 201.317 521.307 199.119 523.411C196.932 525.505 193.999 526.552 190.322 526.552H184.385ZM187.01 506.52V524.177H190.353C193.291 524.177 195.577 523.39 197.213 521.817C198.848 520.244 199.666 518.015 199.666 515.13C199.666 509.39 196.614 506.52 190.51 506.52H187.01ZM210.991 506.489C210.533 506.489 210.142 506.333 209.819 506.02C209.496 505.708 209.335 505.312 209.335 504.833C209.335 504.354 209.496 503.958 209.819 503.645C210.142 503.322 210.533 503.161 210.991 503.161C211.46 503.161 211.855 503.322 212.178 503.645C212.512 503.958 212.678 504.354 212.678 504.833C212.678 505.291 212.512 505.682 212.178 506.005C211.855 506.328 211.46 506.489 210.991 506.489ZM212.241 526.552H209.678V510.552H212.241V526.552ZM232.082 526.552H229.519V524.052H229.457C228.342 525.968 226.701 526.927 224.535 526.927C222.941 526.927 221.691 526.505 220.785 525.661C219.889 524.817 219.441 523.697 219.441 522.302C219.441 519.312 221.201 517.572 224.722 517.083L229.519 516.411C229.519 513.692 228.42 512.333 226.222 512.333C224.295 512.333 222.555 512.989 221.003 514.302V511.677C222.576 510.677 224.389 510.177 226.441 510.177C230.201 510.177 232.082 512.166 232.082 516.145V526.552ZM229.519 518.458L225.66 518.989C224.472 519.156 223.576 519.453 222.972 519.88C222.368 520.296 222.066 521.041 222.066 522.114C222.066 522.895 222.342 523.536 222.894 524.036C223.457 524.525 224.201 524.77 225.128 524.77C226.399 524.77 227.446 524.328 228.269 523.442C229.102 522.546 229.519 521.416 229.519 520.052V518.458ZM253.766 525.27C253.766 531.145 250.953 534.083 245.328 534.083C243.349 534.083 241.62 533.708 240.141 532.958V530.395C241.943 531.395 243.662 531.895 245.297 531.895C249.235 531.895 251.203 529.802 251.203 525.614V523.864H251.141C249.922 525.906 248.089 526.927 245.641 526.927C243.651 526.927 242.047 526.218 240.828 524.802C239.62 523.374 239.016 521.463 239.016 519.067C239.016 516.348 239.667 514.187 240.969 512.583C242.282 510.979 244.073 510.177 246.344 510.177C248.5 510.177 250.099 511.041 251.141 512.77H251.203V510.552H253.766V525.27ZM251.203 519.317V516.958C251.203 515.687 250.771 514.598 249.907 513.692C249.052 512.786 247.985 512.333 246.703 512.333C245.12 512.333 243.88 512.911 242.985 514.067C242.089 515.213 241.641 516.822 241.641 518.895C241.641 520.677 242.068 522.104 242.922 523.177C243.787 524.239 244.927 524.77 246.344 524.77C247.782 524.77 248.948 524.26 249.844 523.239C250.75 522.218 251.203 520.911 251.203 519.317ZM270.497 513.145C270.049 512.802 269.403 512.63 268.56 512.63C267.466 512.63 266.549 513.145 265.81 514.177C265.08 515.208 264.716 516.614 264.716 518.395V526.552H262.153V510.552H264.716V513.848H264.778C265.143 512.723 265.7 511.848 266.45 511.223C267.2 510.588 268.039 510.27 268.966 510.27C269.633 510.27 270.143 510.343 270.497 510.489V513.145ZM287.932 526.552H285.369V524.052H285.307C284.192 525.968 282.551 526.927 280.385 526.927C278.791 526.927 277.541 526.505 276.635 525.661C275.739 524.817 275.291 523.697 275.291 522.302C275.291 519.312 277.051 517.572 280.572 517.083L285.369 516.411C285.369 513.692 284.27 512.333 282.072 512.333C280.145 512.333 278.405 512.989 276.853 514.302V511.677C278.426 510.677 280.239 510.177 282.291 510.177C286.051 510.177 287.932 512.166 287.932 516.145V526.552ZM285.369 518.458L281.51 518.989C280.322 519.156 279.426 519.453 278.822 519.88C278.218 520.296 277.916 521.041 277.916 522.114C277.916 522.895 278.192 523.536 278.744 524.036C279.307 524.525 280.051 524.77 280.978 524.77C282.249 524.77 283.296 524.328 284.119 523.442C284.952 522.546 285.369 521.416 285.369 520.052V518.458ZM318.678 526.552H316.116V517.364C316.116 515.593 315.84 514.312 315.288 513.52C314.746 512.729 313.829 512.333 312.538 512.333C311.444 512.333 310.512 512.833 309.741 513.833C308.98 514.833 308.6 516.031 308.6 517.427V526.552H306.038V517.052C306.038 513.906 304.824 512.333 302.397 512.333C301.272 512.333 300.345 512.807 299.616 513.755C298.887 514.692 298.522 515.916 298.522 517.427V526.552H295.96V510.552H298.522V513.083H298.585C299.72 511.145 301.376 510.177 303.553 510.177C304.647 510.177 305.6 510.484 306.413 511.098C307.225 511.703 307.783 512.499 308.085 513.489C309.272 511.281 311.043 510.177 313.397 510.177C316.918 510.177 318.678 512.348 318.678 516.692V526.552ZM355.797 525.02C353.547 526.291 351.047 526.927 348.297 526.927C345.099 526.927 342.511 525.895 340.532 523.833C338.563 521.77 337.578 519.041 337.578 515.645C337.578 512.177 338.672 509.333 340.86 507.114C343.058 504.885 345.839 503.77 349.203 503.77C351.641 503.77 353.688 504.166 355.344 504.958V507.864C353.532 506.718 351.386 506.145 348.907 506.145C346.396 506.145 344.339 507.01 342.735 508.739C341.13 510.468 340.328 512.708 340.328 515.458C340.328 518.291 341.073 520.52 342.563 522.145C344.052 523.76 346.073 524.567 348.625 524.567C350.375 524.567 351.891 524.218 353.172 523.52V517.239H348.266V514.864H355.797V525.02ZM376.732 519.192H365.435C365.476 520.973 365.955 522.348 366.872 523.317C367.789 524.286 369.049 524.77 370.653 524.77C372.455 524.77 374.112 524.177 375.622 522.989V525.395C374.216 526.416 372.357 526.927 370.044 526.927C367.784 526.927 366.008 526.203 364.716 524.755C363.424 523.296 362.778 521.249 362.778 518.614C362.778 516.124 363.482 514.098 364.888 512.536C366.304 510.963 368.06 510.177 370.153 510.177C372.247 510.177 373.867 510.854 375.013 512.208C376.159 513.562 376.732 515.442 376.732 517.848V519.192ZM374.107 517.02C374.096 515.541 373.737 514.39 373.028 513.567C372.33 512.744 371.357 512.333 370.107 512.333C368.898 512.333 367.872 512.765 367.028 513.63C366.185 514.494 365.664 515.624 365.466 517.02H374.107ZM397.103 526.552H394.541V517.427C394.541 514.031 393.301 512.333 390.822 512.333C389.541 512.333 388.478 512.817 387.635 513.786C386.801 514.744 386.385 515.958 386.385 517.427V526.552H383.822V510.552H386.385V513.208H386.447C387.655 511.187 389.405 510.177 391.697 510.177C393.447 510.177 394.786 510.744 395.713 511.88C396.64 513.005 397.103 514.635 397.103 516.77V526.552ZM418.007 519.192H406.71C406.751 520.973 407.23 522.348 408.147 523.317C409.064 524.286 410.324 524.77 411.928 524.77C413.73 524.77 415.387 524.177 416.897 522.989V525.395C415.491 526.416 413.632 526.927 411.319 526.927C409.059 526.927 407.283 526.203 405.991 524.755C404.699 523.296 404.053 521.249 404.053 518.614C404.053 516.124 404.757 514.098 406.163 512.536C407.579 510.963 409.335 510.177 411.428 510.177C413.522 510.177 415.142 510.854 416.288 512.208C417.434 513.562 418.007 515.442 418.007 517.848V519.192ZM415.382 517.02C415.371 515.541 415.012 514.39 414.303 513.567C413.605 512.744 412.632 512.333 411.382 512.333C410.173 512.333 409.147 512.765 408.303 513.63C407.46 514.494 406.939 515.624 406.741 517.02H415.382ZM433.441 513.145C432.993 512.802 432.347 512.63 431.503 512.63C430.41 512.63 429.493 513.145 428.753 514.177C428.024 515.208 427.66 516.614 427.66 518.395V526.552H425.097V510.552H427.66V513.848H427.722C428.087 512.723 428.644 511.848 429.394 511.223C430.144 510.588 430.983 510.27 431.91 510.27C432.576 510.27 433.087 510.343 433.441 510.489V513.145ZM450.875 526.552H448.313V524.052H448.25C447.136 525.968 445.495 526.927 443.328 526.927C441.735 526.927 440.485 526.505 439.578 525.661C438.683 524.817 438.235 523.697 438.235 522.302C438.235 519.312 439.995 517.572 443.516 517.083L448.313 516.411C448.313 513.692 447.214 512.333 445.016 512.333C443.089 512.333 441.349 512.989 439.797 514.302V511.677C441.37 510.677 443.183 510.177 445.235 510.177C448.995 510.177 450.875 512.166 450.875 516.145V526.552ZM448.313 518.458L444.453 518.989C443.266 519.156 442.37 519.453 441.766 519.88C441.162 520.296 440.86 521.041 440.86 522.114C440.86 522.895 441.136 523.536 441.688 524.036C442.25 524.525 442.995 524.77 443.922 524.77C445.193 524.77 446.24 524.328 447.063 523.442C447.896 522.546 448.313 521.416 448.313 520.052V518.458ZM466.325 526.395C465.721 526.729 464.924 526.895 463.935 526.895C461.133 526.895 459.732 525.333 459.732 522.208V512.739H456.982V510.552H459.732V506.645L462.294 505.817V510.552H466.325V512.739H462.294V521.755C462.294 522.828 462.476 523.593 462.841 524.052C463.205 524.51 463.81 524.739 464.653 524.739C465.299 524.739 465.857 524.562 466.325 524.208V526.395ZM479.635 526.927C477.27 526.927 475.379 526.182 473.963 524.692C472.557 523.192 471.853 521.208 471.853 518.739C471.853 516.052 472.588 513.953 474.057 512.442C475.525 510.932 477.51 510.177 480.01 510.177C482.395 510.177 484.254 510.911 485.588 512.38C486.932 513.848 487.603 515.885 487.603 518.489C487.603 521.041 486.879 523.088 485.432 524.63C483.994 526.161 482.062 526.927 479.635 526.927ZM479.822 512.333C478.176 512.333 476.874 512.895 475.916 514.02C474.958 515.135 474.478 516.677 474.478 518.645C474.478 520.541 474.963 522.036 475.932 523.13C476.9 524.223 478.197 524.77 479.822 524.77C481.478 524.77 482.749 524.234 483.635 523.161C484.53 522.088 484.978 520.562 484.978 518.583C484.978 516.583 484.53 515.041 483.635 513.958C482.749 512.874 481.478 512.333 479.822 512.333ZM503.241 513.145C502.793 512.802 502.147 512.63 501.303 512.63C500.21 512.63 499.293 513.145 498.553 514.177C497.824 515.208 497.46 516.614 497.46 518.395V526.552H494.897V510.552H497.46V513.848H497.522C497.887 512.723 498.444 511.848 499.194 511.223C499.944 510.588 500.783 510.27 501.71 510.27C502.376 510.27 502.887 510.343 503.241 510.489V513.145Z" fill="#9C57FF"/>
<defs>
<linearGradient id="paint0_linear" x1="158.209" y1="56.1603" x2="1517.44" y2="56.1603" gradientUnits="userSpaceOnUse">
<stop offset="0.0015024" stop-color="#DA8CFF"/>
<stop offset="1" stop-color="#9A55FF"/>
</linearGradient>
<linearGradient id="paint1_linear" x1="158.211" y1="175.355" x2="1517.45" y2="175.355" gradientUnits="userSpaceOnUse">
<stop offset="0.0015024" stop-color="#DA8CFF"/>
<stop offset="1" stop-color="#9A55FF"/>
</linearGradient>
<linearGradient id="paint2_linear" x1="158.211" y1="127.677" x2="1517.45" y2="127.677" gradientUnits="userSpaceOnUse">
<stop offset="0.0015024" stop-color="#DA8CFF"/>
<stop offset="1" stop-color="#9A55FF"/>
</linearGradient>
<linearGradient id="paint3_linear" x1="-45.5561" y1="355.746" x2="658.207" y2="355.746" gradientUnits="userSpaceOnUse">
<stop stop-color="#D88AFF"/>
<stop offset="1" stop-color="#9C57FF"/>
</linearGradient>
<linearGradient id="paint4_linear" x1="-45.5561" y1="355.746" x2="658.207" y2="355.746" gradientUnits="userSpaceOnUse">
<stop stop-color="#D88AFF"/>
<stop offset="1" stop-color="#9C57FF"/>
</linearGradient>
<linearGradient id="paint5_linear" x1="-45.5561" y1="355.746" x2="658.207" y2="355.746" gradientUnits="userSpaceOnUse">
<stop stop-color="#D88AFF"/>
<stop offset="1" stop-color="#9C57FF"/>
</linearGradient>
</defs>
</svg>
