<svg width="292" height="70" viewBox="0 0 292 70" fill="none" xmlns="http://www.w3.org/2000/svg">
<g clip-path="url(#clip0)">
<rect width="292" height="70" transform="matrix(1 0 0 -1 0 70)" fill="white"/>
<path d="M65.671 17.0572L34.6926 1.53517C33.9034 1.14054 33.0483 1.14054 32.2591 1.53517L1.28069 17.0572C0.359888 17.5176 -0.232056 18.4385 -0.232056 19.4908C-0.232056 20.5431 0.359888 21.4639 1.28069 21.9243L32.2591 37.3807C32.6537 37.578 33.0483 37.6437 33.5087 37.6437C33.9034 37.6437 34.3638 37.578 34.7584 37.3807L65.7368 21.9243C66.6576 21.4639 67.2495 20.5431 67.2495 19.4908C67.1838 18.4385 66.5918 17.5176 65.671 17.0572ZM33.443 31.9216L8.58133 19.4908L33.443 7.05998L58.3046 19.4908L33.443 31.9216Z" fill="url(#paint0_linear)"/>
<path d="M66.8554 49.2195C66.1977 47.9041 64.5534 47.3122 63.1722 47.9699L33.4435 62.9L3.71474 48.0357C2.39931 47.3779 0.755026 47.9041 0.0315391 49.2853C-0.626176 50.6007 -0.100004 52.245 1.2812 52.9685L32.2596 68.3591C32.6542 68.5564 33.0488 68.6221 33.5092 68.6221C33.9039 68.6221 34.3643 68.5564 34.7589 68.3591L65.7373 52.9027C66.987 52.1793 67.5131 50.6007 66.8554 49.2195Z" fill="url(#paint1_linear)"/>
<path d="M66.8554 33.7633C66.1977 32.4479 64.5534 31.8559 63.1722 32.5137L33.4435 47.378L3.71474 32.5137C2.39931 31.8559 0.755026 32.3821 0.0315391 33.7633C-0.626176 35.0787 -0.100004 36.723 1.2812 37.4465L32.2596 52.9028C32.6542 53.1001 33.0488 53.1659 33.5092 53.1659C33.9039 53.1659 34.3643 53.1001 34.7589 52.9028L65.7373 37.4465C66.987 36.723 67.5131 35.0787 66.8554 33.7633Z" fill="url(#paint2_linear)"/>
<path d="M154.635 66.4127C149.73 68.8042 143.327 70 135.424 70C125.116 70 117.01 66.9476 111.106 60.8429C105.202 54.7381 102.25 46.6037 102.25 36.4397C102.25 25.6147 105.561 16.8352 112.183 10.1011C118.837 3.36705 127.458 0 138.048 0C144.608 0 150.137 0.833895 154.635 2.50169V17.1814C150.137 14.4752 145.014 13.122 139.266 13.122C132.956 13.122 127.864 15.1203 123.991 19.1167C120.118 23.1131 118.181 28.5255 118.181 35.354C118.181 41.8993 120.008 47.123 123.663 51.025C127.318 54.8955 132.238 56.8307 138.423 56.8307C144.326 56.8307 149.73 55.3832 154.635 52.4882V66.4127Z" fill="url(#paint3_linear)"/>
<path d="M166.349 68.82V1.13284H190.151C214.017 1.13284 225.949 12.1308 225.949 34.1268C225.949 44.6685 222.685 53.0861 216.156 59.3796C209.659 65.6732 200.991 68.82 190.151 68.82H166.349ZM181.483 13.5469V56.4531H188.98C195.54 56.4531 200.678 54.4707 204.396 50.5057C208.144 46.5408 210.018 41.1441 210.018 34.3156C210.018 27.8647 208.16 22.7984 204.442 19.1167C200.756 15.4035 195.571 13.5469 188.886 13.5469H181.483Z" fill="url(#paint4_linear)"/>
<path d="M292.25 64.2886C285.69 68.0962 277.537 70 267.791 70C256.983 70 248.456 66.9948 242.208 60.9845C235.992 54.9427 232.884 46.6352 232.884 36.062C232.884 25.4259 236.289 16.7566 243.098 10.0539C249.908 3.35131 258.967 0 270.275 0C277.397 0 283.675 0.991234 289.111 2.9737V17.2758C283.925 14.2549 277.584 12.7444 270.087 12.7444C263.809 12.7444 258.686 14.8056 254.719 18.9278C250.783 23.0187 248.815 28.494 248.815 35.354C248.815 42.3084 250.58 47.6894 254.109 51.497C257.67 55.3046 262.465 57.2084 268.494 57.2084C272.118 57.2084 274.991 56.6891 277.116 55.6507V42.4343H263.668V30.2562H292.25V64.2886Z" fill="url(#paint5_linear)"/>
</g>
<defs>
<linearGradient id="paint0_linear" x1="-9.86561" y1="19.4793" x2="431.595" y2="19.4793" gradientUnits="userSpaceOnUse">
<stop offset="0.0015024" stop-color="#DA8CFF"/>
<stop offset="1" stop-color="#9A55FF"/>
</linearGradient>
<linearGradient id="paint1_linear" x1="-9.8651" y1="58.192" x2="431.596" y2="58.192" gradientUnits="userSpaceOnUse">
<stop offset="0.0015024" stop-color="#DA8CFF"/>
<stop offset="1" stop-color="#9A55FF"/>
</linearGradient>
<linearGradient id="paint2_linear" x1="-9.8651" y1="42.7069" x2="431.596" y2="42.7069" gradientUnits="userSpaceOnUse">
<stop offset="0.0015024" stop-color="#DA8CFF"/>
<stop offset="1" stop-color="#9A55FF"/>
</linearGradient>
<linearGradient id="paint3_linear" x1="87.454" y1="28.5413" x2="316.027" y2="28.5412" gradientUnits="userSpaceOnUse">
<stop stop-color="#D88AFF"/>
<stop offset="1" stop-color="#9C57FF"/>
</linearGradient>
<linearGradient id="paint4_linear" x1="87.454" y1="28.5413" x2="316.027" y2="28.5412" gradientUnits="userSpaceOnUse">
<stop stop-color="#D88AFF"/>
<stop offset="1" stop-color="#9C57FF"/>
</linearGradient>
<linearGradient id="paint5_linear" x1="87.454" y1="28.5413" x2="316.027" y2="28.5412" gradientUnits="userSpaceOnUse">
<stop stop-color="#D88AFF"/>
<stop offset="1" stop-color="#9C57FF"/>
</linearGradient>
<clipPath id="clip0">
<rect width="292" height="70" fill="white" transform="matrix(1 0 0 -1 0 70)"/>
</clipPath>
</defs>
</svg>
